<svg xmlns="http://www.w3.org/2000/svg" xmlns:xlink="http://www.w3.org/1999/xlink" width="500" zoomAndPan="magnify" viewBox="0 0 375 374.999991" height="500" preserveAspectRatio="xMidYMid meet" version="1.0"><defs><g/><clipPath id="cdd800236f"><path d="M 137.867188 124 L 236.867188 124 L 236.867188 179 L 137.867188 179 Z M 137.867188 124 " clip-rule="nonzero"/></clipPath><clipPath id="9d0309e894"><path d="M 159 102.65625 L 216 102.65625 L 216 204.609375 L 159 204.609375 Z M 159 102.65625 " clip-rule="nonzero"/></clipPath></defs><rect x="-37.5" width="450" fill="#ffffff" y="-37.499999" height="449.999989" fill-opacity="1"/><rect x="-37.5" width="450" fill="#ffffff" y="-37.499999" height="449.999989" fill-opacity="1"/><rect x="-37.5" width="450" fill="#ffffff" y="-37.499999" height="449.999989" fill-opacity="1"/><g fill="#002366" fill-opacity="1"><g transform="translate(78.917962, 247.403919)"><g><path d="M 2.390625 -20.140625 L 11.53125 -20.140625 C 13.71875 -20.140625 15.648438 -19.722656 17.328125 -18.890625 C 19.003906 -18.054688 20.304688 -16.878906 21.234375 -15.359375 C 22.171875 -13.847656 22.640625 -12.082031 22.640625 -10.0625 C 22.640625 -8.050781 22.171875 -6.285156 21.234375 -4.765625 C 20.304688 -3.253906 19.003906 -2.082031 17.328125 -1.25 C 15.648438 -0.414062 13.71875 0 11.53125 0 L 2.390625 0 Z M 11.3125 -3.828125 C 13.320312 -3.828125 14.925781 -4.382812 16.125 -5.5 C 17.320312 -6.625 17.921875 -8.144531 17.921875 -10.0625 C 17.921875 -11.976562 17.320312 -13.5 16.125 -14.625 C 14.925781 -15.75 13.320312 -16.3125 11.3125 -16.3125 L 7.046875 -16.3125 L 7.046875 -3.828125 Z M 11.3125 -3.828125 "/></g></g></g><g fill="#002366" fill-opacity="1"><g transform="translate(111.314404, 247.403919)"><g><path d="M 17.984375 -3.734375 L 17.984375 0 L 2.390625 0 L 2.390625 -20.140625 L 17.609375 -20.140625 L 17.609375 -16.390625 L 7.015625 -16.390625 L 7.015625 -12.03125 L 16.375 -12.03125 L 16.375 -8.40625 L 7.015625 -8.40625 L 7.015625 -3.734375 Z M 17.984375 -3.734375 "/></g></g></g><g fill="#002366" fill-opacity="1"><g transform="translate(139.251576, 247.403919)"><g><path d="M 9 0.34375 C 7.40625 0.34375 5.863281 0.128906 4.375 -0.296875 C 2.894531 -0.734375 1.707031 -1.296875 0.8125 -1.984375 L 2.390625 -5.5 C 3.253906 -4.863281 4.28125 -4.351562 5.46875 -3.96875 C 6.65625 -3.582031 7.84375 -3.390625 9.03125 -3.390625 C 10.351562 -3.390625 11.332031 -3.585938 11.96875 -3.984375 C 12.601562 -4.378906 12.921875 -4.898438 12.921875 -5.546875 C 12.921875 -6.023438 12.734375 -6.421875 12.359375 -6.734375 C 11.984375 -7.054688 11.503906 -7.3125 10.921875 -7.5 C 10.335938 -7.695312 9.546875 -7.910156 8.546875 -8.140625 C 7.003906 -8.503906 5.742188 -8.867188 4.765625 -9.234375 C 3.796875 -9.597656 2.957031 -10.179688 2.25 -10.984375 C 1.550781 -11.796875 1.203125 -12.867188 1.203125 -14.203125 C 1.203125 -15.378906 1.519531 -16.441406 2.15625 -17.390625 C 2.789062 -18.335938 3.742188 -19.085938 5.015625 -19.640625 C 6.296875 -20.203125 7.851562 -20.484375 9.6875 -20.484375 C 10.976562 -20.484375 12.234375 -20.328125 13.453125 -20.015625 C 14.679688 -19.710938 15.757812 -19.273438 16.6875 -18.703125 L 15.25 -15.15625 C 13.382812 -16.207031 11.523438 -16.734375 9.671875 -16.734375 C 8.359375 -16.734375 7.390625 -16.519531 6.765625 -16.09375 C 6.148438 -15.675781 5.84375 -15.125 5.84375 -14.4375 C 5.84375 -13.75 6.203125 -13.234375 6.921875 -12.890625 C 7.640625 -12.554688 8.738281 -12.226562 10.21875 -11.90625 C 11.75 -11.539062 13.003906 -11.175781 13.984375 -10.8125 C 14.960938 -10.445312 15.800781 -9.867188 16.5 -9.078125 C 17.195312 -8.296875 17.546875 -7.234375 17.546875 -5.890625 C 17.546875 -4.742188 17.222656 -3.695312 16.578125 -2.75 C 15.941406 -1.800781 14.976562 -1.046875 13.6875 -0.484375 C 12.40625 0.0664062 10.84375 0.34375 9 0.34375 Z M 9 0.34375 "/></g></g></g><g fill="#002366" fill-opacity="1"><g transform="translate(166.239346, 247.403919)"><g><path d="M 2.390625 -20.140625 L 7.046875 -20.140625 L 7.046875 0 L 2.390625 0 Z M 2.390625 -20.140625 "/></g></g></g><g fill="#002366" fill-opacity="1"><g transform="translate(184.308553, 247.403919)"><g><path d="M 16 -10.390625 L 20.25 -10.390625 L 20.25 -2.21875 C 19.15625 -1.394531 17.890625 -0.757812 16.453125 -0.3125 C 15.015625 0.125 13.566406 0.34375 12.109375 0.34375 C 10.015625 0.34375 8.132812 -0.0976562 6.46875 -0.984375 C 4.800781 -1.878906 3.492188 -3.117188 2.546875 -4.703125 C 1.597656 -6.285156 1.125 -8.070312 1.125 -10.0625 C 1.125 -12.0625 1.597656 -13.851562 2.546875 -15.4375 C 3.492188 -17.019531 4.8125 -18.253906 6.5 -19.140625 C 8.1875 -20.035156 10.085938 -20.484375 12.203125 -20.484375 C 13.960938 -20.484375 15.5625 -20.1875 17 -19.59375 C 18.4375 -19 19.644531 -18.132812 20.625 -17 L 17.640625 -14.234375 C 16.191406 -15.753906 14.453125 -16.515625 12.421875 -16.515625 C 11.140625 -16.515625 10 -16.242188 9 -15.703125 C 8.007812 -15.171875 7.234375 -14.414062 6.671875 -13.4375 C 6.117188 -12.457031 5.84375 -11.332031 5.84375 -10.0625 C 5.84375 -8.820312 6.117188 -7.710938 6.671875 -6.734375 C 7.234375 -5.753906 8.003906 -4.988281 8.984375 -4.4375 C 9.972656 -3.894531 11.101562 -3.625 12.375 -3.625 C 13.71875 -3.625 14.925781 -3.910156 16 -4.484375 Z M 16 -10.390625 "/></g></g></g><g fill="#002366" fill-opacity="1"><g transform="translate(215.122673, 247.403919)"><g><path d="M 20.859375 -20.140625 L 20.859375 0 L 17.03125 0 L 6.984375 -12.21875 L 6.984375 0 L 2.390625 0 L 2.390625 -20.140625 L 6.234375 -20.140625 L 16.25 -7.90625 L 16.25 -20.140625 Z M 20.859375 -20.140625 "/></g></g></g><g fill="#002366" fill-opacity="1"><g transform="translate(247.001264, 247.403919)"><g><path d="M 17.984375 -3.734375 L 17.984375 0 L 2.390625 0 L 2.390625 -20.140625 L 17.609375 -20.140625 L 17.609375 -16.390625 L 7.015625 -16.390625 L 7.015625 -12.03125 L 16.375 -12.03125 L 16.375 -8.40625 L 7.015625 -8.40625 L 7.015625 -3.734375 Z M 17.984375 -3.734375 "/></g></g></g><g fill="#002366" fill-opacity="1"><g transform="translate(274.938442, 247.403919)"><g><path d="M 15.21875 0 L 11.328125 -5.609375 L 7.046875 -5.609375 L 7.046875 0 L 2.390625 0 L 2.390625 -20.140625 L 11.109375 -20.140625 C 12.890625 -20.140625 14.4375 -19.84375 15.75 -19.25 C 17.0625 -18.65625 18.070312 -17.8125 18.78125 -16.71875 C 19.488281 -15.625 19.84375 -14.328125 19.84375 -12.828125 C 19.84375 -11.328125 19.484375 -10.035156 18.765625 -8.953125 C 18.046875 -7.867188 17.023438 -7.039062 15.703125 -6.46875 L 20.21875 0 Z M 15.125 -12.828125 C 15.125 -13.960938 14.757812 -14.832031 14.03125 -15.4375 C 13.300781 -16.039062 12.238281 -16.34375 10.84375 -16.34375 L 7.046875 -16.34375 L 7.046875 -9.3125 L 10.84375 -9.3125 C 12.238281 -9.3125 13.300781 -9.617188 14.03125 -10.234375 C 14.757812 -10.847656 15.125 -11.710938 15.125 -12.828125 Z M 15.125 -12.828125 "/></g></g></g><g clip-path="url(#cdd800236f)"><path fill="#6498fd" d="M 137.867188 178.859375 L 137.867188 124.320312 L 187.378906 150.570312 L 236.867188 124.320312 L 236.867188 178.859375 L 228.296875 178.859375 L 228.296875 138.453125 L 187.378906 160.175781 L 146.460938 138.453125 L 146.460938 178.859375 Z M 137.867188 178.859375 " fill-opacity="1" fill-rule="nonzero"/></g><g clip-path="url(#9d0309e894)"><path fill="#6498fd" d="M 159.09375 102.617188 L 215.664062 102.617188 L 215.664062 140.984375 L 207.070312 140.984375 L 207.070312 111.207031 L 159.09375 111.207031 Z M 215.664062 150.078125 L 215.664062 176.328125 C 215.664062 183.894531 212.625 190.972656 207.582031 196.011719 C 202.03125 201.070312 194.949219 204.597656 187.378906 204.597656 L 159.09375 204.597656 L 159.09375 176.328125 L 167.683594 180.878906 L 167.683594 196.03125 L 187.378906 196.03125 C 192.929688 196.03125 197.992188 193.503906 201.519531 189.972656 C 205.050781 186.445312 207.070312 181.386719 207.070312 176.347656 L 207.070312 154.628906 Z M 215.664062 150.078125 " fill-opacity="1" fill-rule="nonzero"/></g></svg>